# xmcd
#
# Track frame offsets:
#	150
#	22176
#	41067
#	58896
#	75597
#	94281
#	120446
#	146435
#	172385
#	189444
#	209409
#	231473
#	258432
#	274820
#	305857
#	320465
#
# Disc length: 4320 seconds
#
# Revision: 2
# Processed by: cddbd v1.4PL0 Copyright (c) Steve Scherf et al.
# Submitted via: EasyCDDAExtractor 5.1.0
#
DISCID=f710de10
DTITLE=Barry White - MTV History
DYEAR=2002
DGENRE=Blues
TTITLE0=Love makin'
TTITLE1=The longer we make love
TTITLE2=It's only love doing it's thing
TTITLE3=Relax to the max
TTITLE4=I'm gonna love you just a little more, baby
TTITLE5=We're gonna have it all
TTITLE6=Volare
TTITLE7=Thank you
TTITLE8=In your wildest dreams
TTITLE9=I get off on to you
TTITLE10=Sexy undercover
TTITLE11=You turned my whole world around
TTITLE12=Like you do
TTITLE13=There it is
TTITLE14=Our theme
TTITLE15=Jook joint outro
EXTD=
EXTT0=
EXTT1=
EXTT2=
EXTT3=
EXTT4=
EXTT5=
EXTT6=
EXTT7=
EXTT8=
EXTT9=
EXTT10=
EXTT11=
EXTT12=
EXTT13=
EXTT14=
EXTT15=
PLAYORDER=
